<?xml version="1.0" standalone="no"?>
<!DOCTYPE svg PUBLIC "-//W3C//DTD SVG 20010904//EN"
 "http://www.w3.org/TR/2001/REC-SVG-20010904/DTD/svg10.dtd">
<svg version="1.0" xmlns="http://www.w3.org/2000/svg"
 width="1000.000000pt" height="1000.000000pt" viewBox="0 0 1000.000000 1000.000000"
 preserveAspectRatio="xMidYMid meet">
<metadata>
Created by potrace 1.14, written by Peter Selinger 2001-2017
</metadata>
<g transform="translate(0.000000,1000.000000) scale(0.100000,-0.100000)"
fill="#000000" stroke="none">
<path d="M0 5000 l0 -5000 5000 0 5000 0 0 5000 0 5000 -5000 0 -5000 0 0
-5000z m6915 2715 c169 -45 314 -193 360 -372 13 -49 15 -225 15 -1245 l0
-1188 -1037 0 c-571 0 -1602 -3 -2290 -7 l-1253 -6 0 1194 c0 1310 -3 1244 60
1369 37 73 126 165 201 208 114 65 -18 61 2024 61 1644 1 1868 -1 1920 -14z
m-3205 -3320 l0 -345 -500 0 -500 0 0 345 0 345 500 0 500 0 0 -345z m2267
335 l1313 0 0 -335 0 -335 -1313 0 c-723 0 -1490 -3 -1705 -7 l-392 -6 0 348
0 348 392 -6 c215 -4 982 -7 1705 -7z m-2267 -1185 l0 -345 -500 0 -500 0 0
345 0 345 500 0 500 0 0 -345z m2267 335 l1313 0 0 -335 0 -335 -1313 0 c-723
0 -1490 -3 -1705 -7 l-392 -6 0 348 0 348 392 -6 c215 -4 982 -7 1705 -7z
m-2267 -1225 l0 -385 -283 0 c-314 0 -353 5 -454 62 -76 42 -166 134 -203 208
-50 98 -60 156 -60 337 l0 163 500 0 500 0 0 -385z m2267 375 l1313 0 0 -158
c0 -175 -11 -234 -60 -332 -37 -74 -127 -166 -203 -208 -117 -66 -22 -62
-1659 -62 l-1488 0 0 387 0 386 392 -6 c215 -4 982 -7 1705 -7z"/>
</g>
</svg>
